<?xml version="1.0" encoding="UTF-8"?>
<svg id="Dark" xmlns="http://www.w3.org/2000/svg" baseProfile="tiny" version="1.2" viewBox="0 0 2133.7 2133.7">
  <!-- Generator: Adobe Illustrator 29.5.1, SVG Export Plug-In . SVG Version: 2.1.0 Build 141)  -->
  <rect id="Background" x="15.2" y="15.2" width="2103.3" height="2103.3" rx="558.8" ry="558.8"/>
  <g>
    <path d="M936.5,1391.5c-99.7-40-216.3-19.6-296.9,52.1,38.5-.3,92.8,5.7,140.3,39.7,47.6,34.2,52.8,71.1,87.6,101.8,35,30.8,100.8,56.1,236.9,24-.4.4-62-106.2-188.1-156.6-118.4-47.3-229.9-19.5-230-21.2,0-1.7,101.9-29.7,212.2,8.7,136.3,47.4,206.3,168.7,205.8,169.1-11-96.9-75.4-180.5-167.9-217.6Z" fill="#029834"/>
    <path d="M1602.7,1495.1c8.9,10.1,60.2,70,48.8,152.7-10,72.1-64.4,138.2-139.4,157.5-93,24.1-213.8-24.7-221.6-97.5-5.8-54.5,55.8-109.3,143.6-146.1,214.2-89.9,271.7-254,295.5-311.8,57.3-139.3,48.6-291.8,39-459.3-3.2-55.5-8.3-101.5-12.5-133.5-16.1,30.1-42.9,74.2-85,120.2-89.6,97.9-166,114.2-266.2,182.9-40.3,27.6-163.9,114.4-238.3,262.9-19.9,39.8-92.8,190.6-50.2,376.7,14,61.3,48.3,211.1,185,286.9,81.5,45.2,160.2,42.4,176,41.6,6.2-.3,142.4-9.1,225.8-108.1,88.5-105.1,86.3-274.8-15.3-409.9-28.3,28.3-56.7,56.6-85,84.9ZM1259.6,1399c25.3-75.9,69.1-157.9,129.9-219.2l.3-.3c44.5-47.4,90-62.7,141.9-112,47.8-44.7,85.8-91.9,120.9-146.8,31.4-49.2,53.9-94.7,72.2-141.6,6.4-16.3,10.1-28.1,14.6-41.7,0,6.7-26.5,124.1-111.9,249.2-11.3,16.5-23.3,32.8-34.8,47.3-30.2,37.9-65.6,73.5-103.6,104.2-32.1,26-59.6,42.6-91.5,73.1-80.4,77.4-134.7,180.3-161,270,6-26.5,13.5-54.1,23.1-82.2Z" fill="#029834"/>
    <path d="M567.2,1898.8c-54.4-40.3-74.4-97.1-84.3-125.1-27.9-78.9-16-146.6-10.2-177.4,7.9-41.7,21.1-72.5,27.6-86.9,41.4-91.5,257.3-503.4,556.8-1061,91.9,175.6,183.7,351.2,275.6,526.8,31.2-23.1,62.4-46.2,93.6-69.3-123.1-233.5-246.2-467.1-369.2-700.6-221.8,421.7-457.4,836.4-665.5,1265-13.9,28.7-29.7,76-32.5,135.3-1.8,38.7-6.9,147.4,68.8,227.9,67.1,71.3,169.3,90.6,171.4,86.8.8-1.4-14.5-8.3-32.1-21.4Z" fill="#029834"/>
  </g>
</svg>