<?xml version="1.0" encoding="UTF-8"?>
<svg id="Dark" xmlns="http://www.w3.org/2000/svg" baseProfile="tiny" version="1.2" viewBox="0 0 2133.7 2133.7">
  <!-- Generator: Adobe Illustrator 29.5.1, SVG Export Plug-In . SVG Version: 2.1.0 Build 141)  -->
  <text id="Slogan" transform="translate(330.7 1764.8)" fill="#029834" font-family="Poppins-Light, Poppins" font-size="50" font-weight="300" letter-spacing=".8em"><tspan x="0" y="0">CONDOMÍNIO RESIDENCIAL</tspan></text>
  <text id="Texto" transform="translate(272.7 1658)" fill="#029834" font-family="Stoic-Regular, Stoic" font-size="250"><tspan x="0" y="0">Jardim de Aruanda</tspan></text>
  <path id="_x33_" d="M987.2,1065.7c-61-24.5-132.2-12-181.4,31.8,23.5-.2,56.7,3.5,85.7,24.3,29.1,20.9,32.2,43.5,53.5,62.2,21.4,18.8,61.6,34.3,144.8,14.7-6.7-59.2-46.1-110.3-102.6-133ZM1089.8,1198.7c-.3.2-37.9-64.9-114.9-95.7-72.4-28.9-140.5-11.9-140.6-13,0-1,62.3-18.1,129.7,5.3,83.3,29,126.1,103.1,125.8,103.4ZM856.8,1146.9,1256.4,963.6" fill="#029834"/>
  <path id="_x32_" d="M1394.3,1129c5.5,6.2,36.8,42.8,29.8,93.3-6.1,44.1-39.4,84.4-85.2,96.3-56.8,14.7-130.7-15.1-135.4-59.6-3.6-33.3,34.1-66.8,87.7-89.3,130.9-54.9,166-155.2,180.6-190.6,35-85.1,29.7-178.3,23.8-280.7-1.9-33.9-5.1-62-7.7-81.6-9.8,18.4-26.2,45.3-52,73.4-54.8,59.8-101.4,69.8-162.7,111.8-24.6,16.9-100.2,69.9-145.7,160.6-12.2,24.3-56.7,116.5-30.7,230.2,8.6,37.5,29.5,129,113.1,175.3,49.8,27.6,97.9,25.9,107.5,25.4,3.8-.2,87-5.6,138-66.1,54.1-64.2,52.8-167.9-9.4-250.5-17.3,17.3-34.6,34.6-52,51.9ZM1264.2,936.2c27.2-29,55-38.3,86.7-68.5,29.2-27.3,52.4-56.2,73.9-89.7,19.2-30.1,32.9-57.9,44.1-86.6,3.9-9.9,6.2-17.2,8.9-25.5,0,4.1-16.2,75.9-68.4,152.3-6.9,10.1-14.2,20.1-21.3,28.9-18.5,23.1-40.1,44.9-63.3,63.7-19.6,15.9-36.4,26-55.9,44.7-57,54.9-92.6,130.9-104.9,190.7-3,19.4-4.4,38.9-6.4,58.4-1.4,16.3-3.3,32-3.3,46.9,0,.9.2,1.4.3,1.4,2.4-8.4-.9-92.3,30-182.7,15.5-46.4,42.2-96.5,79.4-134l.2-.2Z" fill="#029834"/>
  <path id="_x31_" d="M761.5,1375.7c-33.3-24.6-45.5-59.4-51.5-76.5-17.1-48.2-9.8-89.6-6.2-108.4,4.8-25.5,12.9-44.3,16.9-53.1,25.3-55.9,157.3-307.6,340.3-648.4,56.1,107.3,112.3,214.6,168.4,321.9,19.1-14.1,38.1-28.2,57.2-42.4-75.2-142.7-150.4-285.4-225.6-428.2-135.6,257.7-279.5,511.2-406.7,773.1-8.5,17.5-18.2,46.5-19.9,82.7-1.1,23.7-4.2,90.1,42,139.3,41,43.6,103.5,55.4,104.8,53,.5-.9-8.9-5.1-19.6-13.1Z" fill="#029834"/>
</svg>